<?xml version="1.0" encoding="utf-8"?>
<!-- Generator: Adobe Illustrator 19.2.1, SVG Export Plug-In . SVG Version: 6.00 Build 0)  -->
<svg version="1.1" id="レイヤー_1" xmlns="http://www.w3.org/2000/svg" xmlns:xlink="http://www.w3.org/1999/xlink" x="0px"
	 y="0px" viewBox="0 0 473.9 100.8" style="enable-background:new 0 0 473.9 100.8;" xml:space="preserve">
<style type="text/css">
	.st0{fill:#231815;}
</style>
<g>
	<path class="st0" d="M162.3,22.2c0,2.5-0.3,5.2-1,8.2c-0.7,3-1.3,4.5-1.9,4.5c-0.5,0-0.7-0.2-0.7-0.7c0-0.1,0-0.4,0.1-0.6
		c1.3-3.4,1.9-7,1.9-10.9c0-6-1.8-10.9-5.4-14.6c-3.6-3.7-8.4-5.5-14.3-5.5c-7.9,0-16.1,2.6-24.5,7.8c6.7,5,10.1,10.8,10.1,17.5
		c0,10.7-7.3,17.1-21.8,19.1c11.9,4.2,17.9,11.8,17.9,23c0,8.3-3.5,15.5-10.5,21.7c-7,6.2-15.2,9.3-24.7,9.3
		c-4.5,0-8.1-1.2-10.8-3.5c-2.7-2.3-4-5.5-4-9.5c0-6.1,2.8-12.2,8.5-18.2c5.6-6,11.3-9,17-9c3.2,0,5.8,1,7.8,3c2,2,3,4.5,3,7.7
		c0,1.9-0.6,4.2-1.7,7c-1.2,2.8-2.1,4.2-2.8,4.2c-0.5,0-0.8-0.2-0.8-0.6c0-0.2,0.1-0.5,0.3-0.9c2.5-3.6,3.7-6.9,3.7-9.9
		c0-2.7-0.9-4.9-2.7-6.6c-1.8-1.7-4.1-2.5-7-2.5c-5.4,0-10.7,2.9-15.9,8.6c-5.2,5.7-7.8,11.5-7.8,17.5c0,3.2,1.1,5.8,3.2,7.9
		c2.2,2.1,4.8,3.2,8,3.2c7.3,0,14-3.6,20.2-10.7s9.2-15,9.2-23.5c0-8-3.8-13.8-11.5-17.6l-4.2,0.5c-1.2,0.1-2.3,0.2-3.5,0.2
		c-3.6,0-5.5-0.6-5.5-1.8c0-0.9,1.5-1.3,4.5-1.3c2.2,0,5,0.4,8.6,1.3c5-1.5,8.9-4.2,11.8-8.1c2.9-3.8,4.4-8.3,4.4-13.2
		c0-4.8-1.8-9.1-5.5-13C103.8,20,93.9,33.7,84.7,53C78.9,64.8,73.7,73.4,69,78.8c-4.6,5.1-11.2,9.8-19.7,14c-10,4.9-19,7.3-26.9,7.3
		c-6.4,0-11.8-1.5-16.1-4.4c-4.3-3-6.4-6.6-6.4-11c0-2.4,0.7-4.6,2.2-6.3c1.5-1.8,3.2-2.7,5.2-2.7c2.9,0,4.4,1.6,4.4,4.9
		c0,1.6-0.5,3-1.5,4.2c-1,1.2-2.2,1.7-3.6,1.7c-2.5,0-3.7-1.3-3.6-3.9c0-1.1,0-1.6-0.3-1.6c-0.8,0-1.2,1.3-1.2,3.8
		c0,4,2,7.3,5.9,9.9c3.9,2.6,8.8,4,14.8,4c10.5,0,20-3.9,28.6-11.7c3.7-3.4,6.9-6.9,9.6-10.5c2.7-3.7,9-13,18.8-28
		c4.8-7.1,10.5-14.4,17.1-21.8c6.7-7.4,12.3-12.6,16.8-15.8c-7.6-6.4-18.6-9.6-33-9.6c-20.3,0-37.9,7.3-52.8,22
		C15.1,35.3,9,46.6,9,57.2c0,5.4,1.7,9.6,5.2,12.8c3.5,3.2,8.1,4.8,14,4.8c9.6,0,19.6-4.6,29.9-13.9c10.3-9.3,15.4-18.3,15.4-27
		c0-7-3.6-10.4-10.7-10.4c-7.2,0-14.8,4-23,11.9c-8.2,7.9-12.3,15.4-12.3,22.4c0,1.7,0.6,3.2,1.7,4.5c1.2,1.2,2.5,1.9,4,1.9
		c0.8,0.1,1.2,0.3,1.2,0.6c0,0.4-0.5,0.6-1.4,0.6c-2.3,0-4.2-1-5.8-3.1c-1.6-2.1-2.4-4.6-2.4-7.7c0-7.4,4.1-14.7,12.3-21.8
		c8.2-7.1,16.6-10.6,25.3-10.6c8.3,0,12.4,3.8,12.4,11.4c0,9.3-5.3,18.7-15.8,28.2S38.3,76.1,28.1,76.1c-6.7,0-12-2-16-6
		c-4-4-6-9.4-6-16.1c0-13.6,7.7-26,23-37.2C44.4,5.6,61.3,0,79.9,0c14,0,25.8,3.1,35.6,9.4c8.8-5.5,17.3-8.2,25.5-8.2
		c6.4,0,11.6,1.9,15.5,5.8C160.4,10.8,162.3,15.9,162.3,22.2z"/>
	<path class="st0" d="M169.9,74.5c0,0.1-0.4,0.8-1.3,1.9l-3.1,3.9c-9.9,12.3-18.5,18.4-25.6,18.4c-3.4,0-6.2-1.2-8.5-3.6
		c-2.3-2.4-3.4-5.5-3.4-9.1c0-8.6,6-16.2,18.1-22.8c6.3-3.5,11.5-5.2,15.5-5.2c1.7,0,3.2,0.5,4.4,1.5c1.2,1,1.8,2.3,1.8,3.8
		c0,3.5-2.3,6.4-6.8,8.8c-4.5,2.4-12,4.7-22.6,6.8c-3.3,4.9-4.9,9.1-4.9,12.4c0,4.1,2.2,6.2,6.7,6.2c7.6,0,16.9-7.4,27.9-22.2
		c0.6-0.8,1.1-1.2,1.4-1.2C169.8,74.2,169.9,74.3,169.9,74.5z M163.8,61.2c0-1.5-0.8-2.3-2.5-2.3c-2.5,0-5.9,1.8-10,5.3
		c-4.2,3.5-8.2,8.1-12.2,13.7c6.9-1.8,12.8-4.3,17.6-7.5C161.4,67.1,163.8,64.1,163.8,61.2z"/>
	<path class="st0" d="M220.5,74.5c0,1-3.5,5.7-10.5,14c-5.7,6.8-10.1,10.2-13.4,10.2c-2.2,0-4-0.8-5.4-2.5c-1.4-1.7-2.1-3.7-2.1-6.2
		c0-2.6,0.8-5.4,2.3-8.4c-4.8,6.7-8.5,11.3-11,13.6c-2.5,2.4-5,3.5-7.4,3.5c-2.5,0-4.7-1.1-6.4-3.3s-2.6-4.9-2.6-8.2
		c0-9.2,6.5-17.4,19.5-24.5c5.7-3.2,10.3-4.8,13.8-4.8c3,0,4.5,1.4,4.5,4.3c0,0.8-0.2,1.9-0.6,3.2l3.7-7c1.4,0.3,2.7,0.5,3.8,0.5
		c1.3,0,3-0.2,5-0.5L201,79.6c-4.4,7.4-6.6,12.3-6.6,14.6c0,2.3,0.9,3.4,2.8,3.4c1.9,0,5-2.2,9.2-6.6c4.2-4.4,8.5-9.8,12.9-16.3
		c0.3-0.5,0.6-0.7,0.8-0.7C220.4,74,220.5,74.2,220.5,74.5z M200.7,62.6c0-2.4-1.1-3.5-3.2-3.5c-4.4,0-10.2,4.3-17.4,13
		c-7.2,8.6-10.8,15.6-10.8,20.9c0,3.1,1.4,4.7,4.2,4.7c3.3,0,9-5.5,17.2-16.5C197.4,72.1,200.7,65.9,200.7,62.6z"/>
	<path class="st0" d="M266.8,74.5c0,1.1-3.5,5.8-10.4,14c-5.8,6.8-10.3,10.2-13.7,10.2c-2.1,0-3.9-0.9-5.4-2.6
		c-1.5-1.7-2.2-3.8-2.2-6.2c0-1.9,0.9-4.5,2.8-7.8l-1.4,1.9c-4.4,5.7-7.7,9.5-9.7,11.4c-2.3,2.2-4.4,3.2-6.4,3.2
		c-2.1,0-3.9-0.8-5.3-2.5c-1.4-1.7-2.2-3.7-2.2-6.1c0-2.8,1.1-6,3.2-9.6l13.1-22c1.6,0.3,2.9,0.5,3.8,0.5c0.9,0,2.5-0.2,4.9-0.5
		l-17.1,28.2c-1.7,2.9-2.6,5.4-2.6,7.6c0,2.2,0.9,3.2,2.7,3.2c4.8,0,12.6-9,23.3-27.1l7.1-11.9c1.5,0.3,2.7,0.5,3.7,0.5
		c1.2,0,2.9-0.2,5.1-0.5l-11.5,18.8c-5.5,8.9-8.2,14.7-8.2,17.2c0,2.1,1,3.1,3,3.1c3.8,0,10.1-6.1,18.7-18.2l2.2-3.1l1.3-1.6
		c0.2-0.5,0.5-0.7,0.7-0.7C266.7,74,266.8,74.2,266.8,74.5z"/>
	<path class="st0" d="M346.9,74.5c0,0.1-0.3,0.5-0.7,1.2l-3.1,4.3c-9,12.5-15.7,18.8-20,18.8c-2.3,0-4.1-0.8-5.5-2.5
		s-2.2-3.8-2.2-6.5c0-2.7,0.9-5.6,2.7-8.7c0.3-0.6,2.1-3.1,5.3-7.7c4-5.8,6-9.5,6-11.3c0-2-1-3-3-3c-6.3,0-17.2,13-32.6,39
		c-1-0.2-2.3-0.3-4-0.3c-2,0-3.6,0.1-5,0.3L295,81.8c6.7-10.7,10-17.2,10-19.6c0-2.2-0.9-3.2-2.7-3.2c-2.6,0-7,3.8-13,11.4
		c-6,7.6-11.9,16.8-17.9,27.6c-1.1-0.2-2.5-0.3-4.2-0.3c-1.9,0-3.5,0.1-4.9,0.3l10.3-16.2c7.1-11.1,10.7-18,10.7-20.7
		c0-1.4-0.6-2.2-1.7-2.2c-2.4,0-7.2,5.1-14.6,15.4c-0.5,0.7-0.9,1-1.2,1c-0.2,0-0.3-0.2-0.3-0.4c0-0.4,2.2-3.4,6.6-9
		c4.3-5.4,7.7-8.1,10-8.1c1.5,0,2.9,0.7,4,2.2c1.1,1.5,1.7,3.2,1.7,5.2c0,2.8-1.4,6.6-4.2,11.6c8.6-12.7,15.1-19,19.3-19
		c2,0,3.7,0.8,5,2.4c1.3,1.6,1.9,3.7,1.9,6.1c0,2.7-1.3,6.2-3.8,10.4c9.1-12.7,16-19,20.5-19c2.1,0,3.8,0.9,5.2,2.7
		c1.4,1.8,2.1,3.9,2.1,6.5c0,3-1.2,6.5-3.5,10.4c0,0-2.1,3.1-6.2,9.2c-2.4,3.5-3.5,6.1-3.5,7.9c0,2,1,3,3,3c3.7,0,9.9-6.1,18.6-18.2
		l2.2-3.1l1.3-1.6c0.2-0.5,0.5-0.7,0.7-0.7C346.7,74,346.9,74.2,346.9,74.5z"/>
	<path class="st0" d="M389.6,74.4c0,0.8-1.4,2.6-4.2,5.4c-4.2,4.2-8.1,6.3-11.7,6.3c-1.5,0-2.8-0.3-4-0.9
		c-6.3,9-12.3,13.5-17.9,13.5c-2.9,0-5.3-1.2-7.4-3.6c-2-2.4-3.1-5.2-3.1-8.5c0-7.4,4.8-14.5,14.5-21.4c6.8-4.8,12.4-7.3,16.8-7.3
		c4.1,0,6.2,2.2,6.2,6.6c0,5.5-2.9,12.2-8.7,19.9c1,0.6,2,0.9,3.2,0.9c2.2,0,4.7-1,7.6-3c2.9-2,5.2-4.4,7.1-7.2c0.5-0.7,0.9-1,1.2-1
		C389.5,74.1,389.6,74.2,389.6,74.4z M377.9,64.7c0-3.9-1.8-5.8-5.3-5.8c-4.4,0-9.7,4.2-16,12.5c-6.3,8.4-9.4,15.4-9.4,21.1
		c0,3.3,1.6,5,4.8,5c5.2,0,10.8-4.3,17-12.8c-1.4-1.5-2.1-3.1-2.1-4.8c0-2.4,0.9-4.8,2.8-7.3c1.9-2.5,3.7-3.7,5.5-3.7
		c0.8,0,1.3,0.5,1.6,1.4C377.5,68.6,377.9,66.8,377.9,64.7z"/>
	<path class="st0" d="M447.4,74.5c0,1-3.5,5.7-10.4,14c-5.7,6.8-10.2,10.2-13.5,10.2c-2.2,0-4-0.8-5.4-2.5s-2.2-3.7-2.2-6.2
		c0-2.2,0.4-4.2,1.3-6c0.9-1.8,3.2-5.5,6.9-11c3.9-5.8,5.8-9.4,5.8-11c0-2-1-3-3.1-3c-7,0-17.8,13-32.4,39c-2.4-0.2-3.8-0.3-4.2-0.3
		c-1.7,0-3.3,0.1-4.8,0.3l11.2-17.8c6.4-10.2,9.6-16.5,9.6-19.1c0-1.4-0.6-2.2-1.8-2.2c-2.5,0-7.3,5.2-14.5,15.5c-0.4,0.6-0.8,1-1,1
		c-0.2,0-0.4-0.1-0.4-0.4c0-0.2,0.1-0.4,0.3-0.6l1.4-1.8c7.4-9.9,12.3-14.8,14.9-14.8c1.6,0,3,0.7,4.2,2.2c1.2,1.5,1.7,3.3,1.7,5.3
		c0,3.1-1.8,7.3-5.4,12.8c5.7-7.8,10-13.2,13.1-16.1s5.9-4.3,8.5-4.3c2.1,0,3.9,0.9,5.3,2.6c1.4,1.7,2.2,3.9,2.2,6.4
		c0,3.2-2.2,8.1-6.6,14.8c-4.5,6.8-6.8,11.1-6.8,13c0,2,1,3,3,3c4.3,0,11.7-7.6,22.1-22.9c0.2-0.5,0.5-0.7,0.7-0.7
		C447.3,74,447.4,74.2,447.4,74.5z"/>
	<path class="st0" d="M473.9,57.9l-0.6,1.1h-9.4l-16.1,27.4c-2,3.3-3,6-3,7.9c0,2.2,1.1,3.2,3.4,3.2c4.4,0,11.7-7.6,22.1-22.9
		c0.3-0.5,0.6-0.7,0.9-0.7c0.3,0,0.4,0.1,0.4,0.4c0,0.1-0.3,0.5-0.7,1.2l-3.1,4.3c-9,12.5-15.8,18.8-20.4,18.8
		c-2.3,0-4.1-0.8-5.7-2.4c-1.5-1.6-2.3-3.7-2.3-6.1c0-2.9,1.3-6.5,3.8-10.8L455.5,59h-7.3l0.7-1.1h7.2l8.4-14
		c1.4,0.4,2.8,0.6,4.1,0.6c1.3,0,2.7-0.2,4.2-0.6l-8.3,14H473.9z"/>
</g>
</svg>
