<?xml version="1.0" encoding="utf-8"?>
<!-- Generator: Adobe Illustrator 19.2.1, SVG Export Plug-In . SVG Version: 6.00 Build 0)  -->
<svg version="1.1" id="_200_menu_01.png" xmlns="http://www.w3.org/2000/svg" xmlns:xlink="http://www.w3.org/1999/xlink" x="0px"
	 y="0px" viewBox="0 0 252.9 66.9" style="enable-background:new 0 0 252.9 66.9;" xml:space="preserve">
<style type="text/css">
	.st0{enable-background:new    ;}
	.st1{fill:#0A0B28;}
</style>
<g class="st0">
	<path class="st1" d="M30.3,35.4l-4.2-10.2H5.6L1.2,35.4H0L15.4,0h1.4l14.8,35.4H30.3z M16,0.7L6,24.3h19.8L16,0.7z"/>
	<path class="st1" d="M53.9,15.5c-0.9-0.9-1.9-1.6-3-2.1c-1.2-0.5-2.4-0.8-3.7-0.8c-1.6,0-3.1,0.3-4.4,0.9c-1.3,0.6-2.4,1.4-3.3,2.5
		c-0.9,1-1.6,2.2-2.1,3.6c-0.5,1.4-0.8,2.8-0.8,4.3s0.2,2.9,0.8,4.3c0.5,1.4,1.2,2.6,2.1,3.6c0.9,1,2,1.8,3.3,2.4
		c1.3,0.6,2.8,0.9,4.4,0.9c1.3,0,2.5-0.2,3.7-0.7c1.2-0.4,2.3-1.1,3.2-1.9l0.8,0.7c-1,1-2.2,1.7-3.5,2.2c-1.3,0.4-2.7,0.7-4.1,0.7
		c-1.7,0-3.3-0.3-4.7-0.9c-1.4-0.6-2.6-1.4-3.7-2.5c-1-1.1-1.9-2.3-2.4-3.8c-0.6-1.5-0.9-3.1-0.9-4.9c0-1.8,0.3-3.4,0.9-4.9
		c0.6-1.5,1.4-2.8,2.4-3.9c1.1-1.1,2.3-1.9,3.7-2.6c1.4-0.6,3-0.9,4.7-0.9c1.5,0,2.9,0.3,4.2,0.8c1.3,0.5,2.4,1.3,3.4,2.2L53.9,15.5
		z"/>
	<path class="st1" d="M77.9,15.5c-0.9-0.9-1.9-1.6-3-2.1c-1.2-0.5-2.4-0.8-3.7-0.8c-1.6,0-3.1,0.3-4.4,0.9c-1.3,0.6-2.4,1.4-3.3,2.5
		c-0.9,1-1.6,2.2-2.1,3.6c-0.5,1.4-0.8,2.8-0.8,4.3s0.2,2.9,0.8,4.3c0.5,1.4,1.2,2.6,2.1,3.6c0.9,1,2,1.8,3.3,2.4
		c1.3,0.6,2.8,0.9,4.4,0.9c1.3,0,2.5-0.2,3.7-0.7c1.2-0.4,2.3-1.1,3.2-1.9l0.8,0.7c-1,1-2.2,1.7-3.5,2.2c-1.3,0.4-2.7,0.7-4.1,0.7
		c-1.7,0-3.3-0.3-4.7-0.9c-1.4-0.6-2.6-1.4-3.7-2.5c-1-1.1-1.9-2.3-2.4-3.8c-0.6-1.5-0.9-3.1-0.9-4.9c0-1.8,0.3-3.4,0.9-4.9
		c0.6-1.5,1.4-2.8,2.4-3.9c1.1-1.1,2.3-1.9,3.7-2.6c1.4-0.6,3-0.9,4.7-0.9c1.5,0,2.9,0.3,4.2,0.8c1.3,0.5,2.4,1.3,3.4,2.2L77.9,15.5
		z"/>
	<path class="st1" d="M84.6,23.7c0,1.4,0.2,2.8,0.6,4.2c0.4,1.4,1,2.6,1.9,3.7s1.9,2,3.2,2.6c1.3,0.7,2.8,1,4.6,1
		c1.8,0,3.4-0.4,4.8-1.1s2.6-1.8,3.6-3.1l0.8,0.7c-1.1,1.5-2.5,2.6-4,3.3c-1.5,0.8-3.3,1.2-5.3,1.2c-1.7,0-3.2-0.3-4.6-0.9
		c-1.4-0.6-2.6-1.5-3.6-2.6c-1-1.1-1.8-2.4-2.4-4c-0.5-1.5-0.8-3.2-0.8-5c0-1.7,0.3-3.3,0.9-4.8s1.3-2.7,2.3-3.8
		c1-1.1,2.1-1.9,3.5-2.5c1.3-0.6,2.8-0.9,4.3-0.9c1.8,0,3.4,0.3,4.7,1c1.3,0.6,2.4,1.5,3.3,2.5c0.9,1,1.5,2.2,2,3.5
		c0.4,1.3,0.7,2.7,0.7,4v1H84.6z M104,22.7c0-1.5-0.3-2.9-0.8-4.1c-0.5-1.2-1.1-2.3-2-3.2c-0.8-0.9-1.8-1.6-3-2.1
		c-1.2-0.5-2.5-0.7-3.9-0.7c-1.7,0-3.2,0.4-4.5,1.1c-1.2,0.7-2.2,1.6-3,2.6c-0.8,1.1-1.4,2.2-1.7,3.3c-0.4,1.1-0.5,2.2-0.5,3H104z"
		/>
	<path class="st1" d="M126.2,29.4c0,1-0.2,2-0.6,2.8c-0.4,0.8-0.9,1.5-1.6,2.1c-0.7,0.6-1.5,1-2.4,1.3c-0.9,0.3-1.9,0.4-2.9,0.4
		c-1.7,0-3.2-0.3-4.6-1c-1.4-0.7-2.5-1.6-3.4-2.9l0.9-0.6c1.7,2.3,4.1,3.5,7.2,3.5c0.7,0,1.5-0.1,2.2-0.4c0.8-0.2,1.4-0.6,2-1
		c0.6-0.5,1.1-1,1.5-1.8c0.4-0.7,0.6-1.5,0.6-2.4c0-1.1-0.2-1.9-0.7-2.6c-0.5-0.7-1.1-1.2-1.8-1.6c-0.7-0.4-1.5-0.7-2.4-1
		c-0.9-0.2-1.7-0.5-2.5-0.7c-0.8-0.2-1.6-0.5-2.4-0.8c-0.7-0.3-1.4-0.6-1.9-1.1c-0.6-0.5-1-1-1.3-1.7c-0.3-0.7-0.5-1.5-0.5-2.5
		s0.2-1.9,0.6-2.6c0.4-0.7,0.9-1.3,1.6-1.8c0.7-0.5,1.4-0.9,2.3-1.1c0.9-0.2,1.7-0.4,2.6-0.4c3.1,0,5.5,1.1,7,3.4l-0.9,0.5
		c-0.8-1-1.6-1.7-2.6-2.2c-1-0.5-2.1-0.7-3.5-0.7c-0.6,0-1.3,0.1-2,0.2c-0.7,0.2-1.3,0.4-1.9,0.8c-0.6,0.4-1.1,0.9-1.5,1.5
		c-0.4,0.6-0.6,1.4-0.6,2.3c0,1,0.2,1.8,0.5,2.4c0.3,0.6,0.8,1.1,1.3,1.5c0.6,0.4,1.2,0.7,2,0.9c0.8,0.2,1.7,0.5,2.6,0.7
		c0.9,0.2,1.8,0.5,2.6,0.8c0.9,0.3,1.6,0.7,2.2,1.2c0.7,0.5,1.2,1,1.6,1.8C126.1,27.5,126.2,28.4,126.2,29.4z"/>
	<path class="st1" d="M147,29.4c0,1-0.2,2-0.6,2.8s-0.9,1.5-1.6,2.1c-0.7,0.6-1.5,1-2.4,1.3c-0.9,0.3-1.9,0.4-2.9,0.4
		c-1.7,0-3.2-0.3-4.6-1s-2.5-1.6-3.4-2.9l0.9-0.6c1.7,2.3,4.1,3.5,7.2,3.5c0.7,0,1.5-0.1,2.2-0.4c0.8-0.2,1.4-0.6,2-1
		c0.6-0.5,1.1-1,1.5-1.8c0.4-0.7,0.6-1.5,0.6-2.4c0-1.1-0.2-1.9-0.7-2.6c-0.5-0.7-1.1-1.2-1.8-1.6c-0.7-0.4-1.5-0.7-2.4-1
		c-0.9-0.2-1.7-0.5-2.5-0.7c-0.8-0.2-1.6-0.5-2.3-0.8c-0.7-0.3-1.4-0.6-1.9-1.1c-0.6-0.5-1-1-1.3-1.7s-0.5-1.5-0.5-2.5
		s0.2-1.9,0.6-2.6c0.4-0.7,0.9-1.3,1.6-1.8c0.7-0.5,1.4-0.9,2.3-1.1c0.9-0.2,1.7-0.4,2.6-0.4c3.1,0,5.5,1.1,7,3.4l-0.9,0.5
		c-0.8-1-1.6-1.7-2.6-2.2c-1-0.5-2.1-0.7-3.5-0.7c-0.6,0-1.3,0.1-2,0.2c-0.7,0.2-1.3,0.4-1.9,0.8c-0.6,0.4-1.1,0.9-1.5,1.5
		c-0.4,0.6-0.6,1.4-0.6,2.3c0,1,0.2,1.8,0.5,2.4c0.3,0.6,0.8,1.1,1.3,1.5c0.6,0.4,1.2,0.7,2,0.9s1.7,0.5,2.6,0.7
		c0.9,0.2,1.8,0.5,2.6,0.8c0.9,0.3,1.6,0.7,2.2,1.2c0.7,0.5,1.2,1,1.6,1.8C146.8,27.5,147,28.4,147,29.4z"/>
	<path class="st1" d="M176.8,23.9c0,1.8-0.3,3.5-0.9,5s-1.4,2.8-2.5,3.9c-1.1,1.1-2.3,1.9-3.8,2.5c-1.5,0.6-3.1,0.9-4.9,0.9
		s-3.4-0.3-4.8-0.9c-1.5-0.6-2.7-1.4-3.8-2.5c-1.1-1.1-1.9-2.4-2.5-3.9s-0.9-3.2-0.9-5s0.3-3.4,0.9-4.9s1.4-2.8,2.5-3.8
		c1.1-1.1,2.3-1.9,3.8-2.5c1.5-0.6,3.1-0.9,4.8-0.9s3.4,0.3,4.9,0.9c1.5,0.6,2.8,1.4,3.8,2.5c1.1,1.1,1.9,2.3,2.5,3.8
		S176.8,22.1,176.8,23.9z M175.7,23.9c0-1.5-0.2-3-0.8-4.4c-0.5-1.4-1.2-2.6-2.2-3.6s-2.1-1.8-3.5-2.4c-1.3-0.6-2.9-0.9-4.6-0.9
		s-3.2,0.3-4.5,0.9c-1.3,0.6-2.5,1.4-3.4,2.4s-1.7,2.2-2.2,3.6c-0.5,1.4-0.8,2.8-0.8,4.4c0,1.6,0.2,3,0.8,4.4
		c0.5,1.4,1.2,2.6,2.2,3.6c1,1,2.1,1.8,3.4,2.4c1.3,0.6,2.8,0.9,4.5,0.9s3.2-0.3,4.6-0.9c1.3-0.6,2.5-1.4,3.5-2.4
		c1-1,1.7-2.2,2.2-3.6C175.5,26.9,175.7,25.4,175.7,23.9z"/>
	<path class="st1" d="M189.5,13.3c1.5-1,3-1.6,4.8-1.6c0.2,0,0.3,0,0.5,0c0.1,0,0.3,0,0.5,0v1c-0.1,0-0.3,0-0.4,0
		c-0.1,0-0.2,0-0.3,0c-1.5,0-2.7,0.3-3.8,1c-1,0.7-1.9,1.5-2.5,2.6c-0.7,1-1.2,2.2-1.5,3.5c-0.3,1.3-0.5,2.6-0.5,3.8v11.9h-1.1V18.2
		c0-0.4,0-0.8,0-1.3s0-1.1,0-1.6c0-0.5,0-1.1-0.1-1.6s-0.1-0.9-0.1-1.2h1.1c0,0.3,0.1,0.8,0.1,1.2c0,0.5,0,1,0,1.6
		c0,0.6,0,1.2,0,1.7s0,1,0,1.5h0.1C187,16.1,188.1,14.3,189.5,13.3z"/>
	<path class="st1" d="M201.4,3.8c-0.3,0-0.6-0.1-0.8-0.3c-0.2-0.2-0.4-0.5-0.4-1c0-0.4,0.1-0.7,0.4-0.9c0.2-0.2,0.5-0.4,0.8-0.4
		s0.6,0.1,0.8,0.4c0.2,0.2,0.3,0.5,0.3,0.9c0,0.4-0.1,0.7-0.4,1C202,3.6,201.7,3.8,201.4,3.8z M200.9,35.4v-23h1.1v23H200.9z"/>
	<path class="st1" d="M211.3,23.7c0,1.4,0.2,2.8,0.6,4.2c0.4,1.4,1,2.6,1.9,3.7c0.8,1.1,1.9,2,3.2,2.6s2.8,1,4.6,1
		c1.8,0,3.4-0.4,4.8-1.1c1.4-0.7,2.6-1.8,3.6-3.1l0.8,0.7c-1.1,1.5-2.5,2.6-4,3.3c-1.5,0.8-3.3,1.2-5.3,1.2c-1.7,0-3.2-0.3-4.6-0.9
		c-1.4-0.6-2.6-1.5-3.6-2.6c-1-1.1-1.8-2.4-2.4-4c-0.5-1.5-0.8-3.2-0.8-5c0-1.7,0.3-3.3,0.9-4.8c0.6-1.5,1.3-2.7,2.3-3.8
		s2.1-1.9,3.5-2.5c1.3-0.6,2.8-0.9,4.3-0.9c1.8,0,3.4,0.3,4.7,1c1.3,0.6,2.4,1.5,3.3,2.5c0.9,1,1.5,2.2,2,3.5s0.7,2.7,0.7,4v1H211.3
		z M230.7,22.7c0-1.5-0.3-2.9-0.8-4.1s-1.1-2.3-2-3.2c-0.8-0.9-1.8-1.6-3-2.1c-1.2-0.5-2.5-0.7-3.9-0.7c-1.7,0-3.2,0.4-4.5,1.1
		s-2.2,1.6-3,2.6c-0.8,1.1-1.4,2.2-1.7,3.3c-0.4,1.1-0.5,2.2-0.5,3H230.7z"/>
	<path class="st1" d="M252.9,29.4c0,1-0.2,2-0.6,2.8s-0.9,1.5-1.6,2.1c-0.7,0.6-1.5,1-2.4,1.3c-0.9,0.3-1.9,0.4-2.9,0.4
		c-1.7,0-3.2-0.3-4.6-1s-2.5-1.6-3.4-2.9l0.9-0.6c1.7,2.3,4.1,3.5,7.2,3.5c0.7,0,1.5-0.1,2.2-0.4c0.8-0.2,1.4-0.6,2-1
		c0.6-0.5,1.1-1,1.5-1.8c0.4-0.7,0.6-1.5,0.6-2.4c0-1.1-0.2-1.9-0.7-2.6c-0.5-0.7-1.1-1.2-1.8-1.6c-0.7-0.4-1.5-0.7-2.4-1
		c-0.9-0.2-1.7-0.5-2.5-0.7c-0.8-0.2-1.6-0.5-2.3-0.8c-0.7-0.3-1.4-0.6-1.9-1.1c-0.6-0.5-1-1-1.3-1.7s-0.5-1.5-0.5-2.5
		s0.2-1.9,0.6-2.6c0.4-0.7,0.9-1.3,1.6-1.8c0.7-0.5,1.4-0.9,2.3-1.1c0.9-0.2,1.7-0.4,2.6-0.4c3.1,0,5.5,1.1,7,3.4l-0.9,0.5
		c-0.8-1-1.6-1.7-2.6-2.2c-1-0.5-2.1-0.7-3.5-0.7c-0.6,0-1.3,0.1-2,0.2c-0.7,0.2-1.3,0.4-1.9,0.8c-0.6,0.4-1.1,0.9-1.5,1.5
		c-0.4,0.6-0.6,1.4-0.6,2.3c0,1,0.2,1.8,0.5,2.4c0.3,0.6,0.8,1.1,1.3,1.5c0.6,0.4,1.2,0.7,2,0.9s1.7,0.5,2.6,0.7
		c0.9,0.2,1.8,0.5,2.6,0.8c0.9,0.3,1.6,0.7,2.2,1.2c0.7,0.5,1.2,1,1.6,1.8C252.8,27.5,252.9,28.4,252.9,29.4z"/>
</g>
<g class="st0">
	<path class="st1" d="M101.7,57.5c0,0-0.1,0.1-0.2,0.1c-0.6,1.5-1.7,2.9-2.8,3.8c-0.2-0.2-0.5-0.4-0.7-0.5c1.1-0.8,2-2,2.4-3h-8.6
		v-0.8h9l0.1-0.1L101.7,57.5z M97,59.7c0,0.1-0.1,0.2-0.3,0.2c-0.3,2.8-1.3,5.5-3.8,7c-0.2-0.1-0.5-0.4-0.7-0.6
		c2.4-1.3,3.3-3.8,3.6-6.7L97,59.7z"/>
	<path class="st1" d="M111.1,58.7c0,0.1-0.1,0.1-0.2,0.2c-1.3,3.9-3.2,6.4-6.5,8.1c-0.1-0.2-0.4-0.5-0.6-0.7
		c3.1-1.5,5.1-3.9,6.1-7.1h-4.3c-0.7,1.1-1.6,2.1-2.7,3c-0.2-0.2-0.4-0.4-0.7-0.6c1.6-1.3,3-3.1,3.8-5.2l1.1,0.3
		c0,0.1-0.2,0.2-0.3,0.2c-0.2,0.5-0.5,1-0.8,1.5h4.2l0.1-0.1L111.1,58.7z"/>
	<path class="st1" d="M122.8,59.1c0,0.1-0.1,0.1-0.2,0.1c-0.5,1.3-1.5,2.9-2.5,3.9c-0.2-0.1-0.5-0.3-0.7-0.4c0.9-0.8,1.7-2,2.1-3
		l-4.6,1.2v3.1c0,1.2,0.7,1.6,1.7,1.6h2c0.5,0,1.3-0.1,1.8-0.1c0,0.3,0,0.6,0,0.8c-0.5,0.1-1.3,0.1-1.8,0.1h-2
		c-1.5,0-2.5-0.7-2.5-2.4v-2.9l-3,0.8l-0.2-0.8l3.2-0.8v-3.6l1.2,0c0,0.1-0.1,0.2-0.3,0.2v3.1l5.1-1.3l0.1-0.1L122.8,59.1z"/>
	<path class="st1" d="M134.9,60h-2.5v0.8c0,2.3-0.7,4.6-3.8,6c-0.2-0.2-0.4-0.4-0.6-0.6c3-1.3,3.6-3.5,3.6-5.4V60h-3.9v3h-0.9v-3
		h-2.4v-0.8h2.4v-2.6l1.2,0.1c0,0.1-0.1,0.2-0.3,0.3v2.3h3.9v-2.8l1.2,0.1c0,0.1-0.1,0.2-0.3,0.2v2.5h2.5V60z"/>
	<path class="st1" d="M137.4,63v-5.8l1.1,0.1c0,0.1-0.1,0.2-0.3,0.2V63H137.4z M144.1,56.8c0,0.1-0.1,0.2-0.3,0.2v3.8
		c0,2.5-0.9,4.8-4.3,6.2c-0.1-0.2-0.4-0.5-0.6-0.6c3.3-1.2,4.1-3.3,4.1-5.5v-4.1L144.1,56.8z"/>
	<path class="st1" d="M146.4,61h10v0.9h-9.6c-0.1,0.1-0.2,0.2-0.4,0.2L146.4,61z"/>
</g>
</svg>
