<?xml version="1.0" encoding="utf-8"?>
<!-- Generator: Adobe Illustrator 19.2.1, SVG Export Plug-In . SVG Version: 6.00 Build 0)  -->
<svg version="1.1" id="_200_menu_02.png" xmlns="http://www.w3.org/2000/svg" xmlns:xlink="http://www.w3.org/1999/xlink" x="0px"
	 y="0px" viewBox="0 0 136.5 69.5" style="enable-background:new 0 0 136.5 69.5;" xml:space="preserve">
<style type="text/css">
	.st0{enable-background:new    ;}
	.st1{fill:#0A0B28;}
</style>
<g class="st0">
	<path class="st1" d="M18.9,64.1c-0.5,1.4-1.3,2.6-2.3,3.5l-0.7-0.5c0.9-0.8,1.7-2,2.2-3.4L18.9,64.1z M21.4,62.2v5.7
		c0,1.3-0.9,1.3-2.8,1.3c0-0.2-0.1-0.6-0.3-0.8c0.3,0,0.7,0,1.1,0h0.7c0.3,0,0.5-0.2,0.5-0.5v-5.7h-4.1v-0.8h4.1v-2.5l1.1,0.1
		c0,0.1-0.1,0.2-0.3,0.2v2.2h4.1v0.8H21.4z M23.6,63.7c0.9,1,1.9,2.4,2.5,3.5l-0.8,0.4c-0.6-1.1-1.6-2.6-2.4-3.6L23.6,63.7z
		 M23.5,58.8c0.5,0.5,1.2,1.2,1.5,1.8l-0.5,0.3c-0.3-0.5-1-1.3-1.5-1.7L23.5,58.8z M25.2,58.3c0.6,0.5,1.2,1.2,1.5,1.7l-0.5,0.4
		c-0.3-0.5-1-1.3-1.5-1.7L25.2,58.3z"/>
	<path class="st1" d="M27.8,63.4h10v0.9h-9.6c-0.1,0.1-0.2,0.2-0.4,0.2L27.8,63.4z"/>
	<path class="st1" d="M44,64.2v2.7c0,0.6,0.3,1.1,1.2,1.1h2.2c0.4,0,1.1,0,1.5-0.1c0,0.2,0,0.6,0,0.8c-0.4,0.1-1.1,0.1-1.5,0.1h-2.3
		c-1.5,0-2-0.8-2-1.9v-2.7h-3.4v-0.8h3.4v-3h-2.6v-0.8h7.7v0.8H44v3h5.4v0.8H44z"/>
	<path class="st1" d="M51.8,59.8c1.2,0.4,2.7,1,3.6,1.6l-0.5,0.8c-0.9-0.6-2.3-1.2-3.5-1.7L51.8,59.8z M51.8,68.1
		c4.3-1.3,7.1-3.7,8.5-7c0.3,0.2,0.5,0.4,0.8,0.5c-1.5,3.3-4.4,5.8-8.5,7.2c0,0.1-0.1,0.2-0.2,0.3L51.8,68.1z"/>
	<path class="st1" d="M69.4,65.2c-1.2-0.7-2.9-1.4-4.2-2v6h-0.9V58.8l1.2,0.1c0,0.1-0.1,0.2-0.3,0.3v3.5l0.2-0.3
		c1.4,0.5,3.3,1.3,4.5,2L69.4,65.2z"/>
	<path class="st1" d="M74.3,59.4c0,0.1-0.2,0.2-0.4,0.2c-0.4,2-0.6,4.1-0.6,5.4c0,0.9,0,1.8,0.2,2.4c0.2-0.6,0.7-1.8,0.9-2.3
		l0.5,0.5c-0.5,1.2-0.9,1.9-1,2.4c-0.1,0.2-0.1,0.4-0.1,0.6c0,0.1,0,0.3,0.1,0.4L73,69.1c-0.4-1.1-0.5-2.5-0.5-4.1
		c0-1.6,0.3-3.8,0.6-5.8L74.3,59.4z M82,68.1c-0.4,0-0.9,0-1.3,0c-0.9,0-1.7,0-2.2-0.1c-1.5-0.2-2.2-1-2.2-2c0-0.8,0.5-1.5,1.1-2.3
		l0.8,0.3c-0.6,0.6-1,1.2-1,1.9c0,1.4,2,1.4,3.3,1.4c0.5,0,1,0,1.5-0.1L82,68.1z M76.4,60.8c1.5,0,3.6-0.2,5.2-0.5l0.1,0.8
		c-1.5,0.3-3.9,0.4-5.3,0.4L76.4,60.8z"/>
	<path class="st1" d="M83.8,61.8c0.3-0.1,0.7-0.2,1.2-0.3c2.1-0.7,4-1.2,5.3-1.2c2,0,3.7,1,3.7,3.5c0,3-2.9,4.1-7,4.5
		c0-0.2-0.2-0.6-0.3-0.8c3.7-0.3,6.4-1.4,6.4-3.7c0-1.9-1.3-2.7-2.9-2.7c-1.7,0-4.8,1-5.9,1.5c0,0.1-0.1,0.2-0.2,0.3L83.8,61.8z"/>
	<path class="st1" d="M97.5,60.1c0,0.1-0.2,0.2-0.3,0.2c-0.1,0.9-0.2,2-0.2,3c0,0.4,0,0.9,0,1.3c0.1,2,1,3.3,1.9,3.3
		c0.5,0,1.1-1.2,1.5-2.6c0.2,0.2,0.5,0.4,0.7,0.5c-0.6,1.6-1.2,2.9-2.2,3c-1.5,0-2.6-1.8-2.7-4.1c0-0.5,0-1,0-1.5
		c0-1.1,0.1-2.2,0.2-3.2L97.5,60.1z M105.5,65.7c-0.3-2.1-1.4-3.6-3-4.5l0.5-0.6c1.8,0.9,3,2.7,3.4,4.9L105.5,65.7z"/>
	<path class="st1" d="M107.6,60.1c0.9,0,8.3-0.6,9.8-0.6l0,0.9c-0.2,0-0.3,0-0.4,0c-0.7,0-1.3,0.1-2.1,0.6c-1.8,1.1-3.5,3-3.5,4.6
		c0,1.7,1.2,2.7,4.1,3.1l-0.4,0.8c-3.4-0.5-4.7-1.8-4.7-3.9c0-1.7,1.7-3.7,3.9-5.1c-1.3,0.1-4.9,0.4-6.4,0.5c0,0.1-0.2,0.2-0.3,0.2
		L107.6,60.1z"/>
</g>
<g class="st0">
	<path class="st1" d="M30.3,37.8l-4.2-10.2H5.6L1.2,37.8H0L15.4,2.4h1.4l14.8,35.4H30.3z M16,3.1L6,26.7h19.8L16,3.1z"/>
	<path class="st1" d="M38.8,21c1-2.3,2.4-4,4.3-5.2c1.8-1.2,3.9-1.8,6.1-1.8c1.7,0,3.2,0.3,4.7,0.9c1.4,0.6,2.6,1.5,3.6,2.6
		c1,1.1,1.8,2.4,2.3,3.9s0.8,3.1,0.8,4.9c0,1.7-0.3,3.3-0.8,4.8c-0.6,1.5-1.4,2.8-2.4,3.8c-1,1.1-2.2,1.9-3.6,2.6
		c-1.4,0.6-3,0.9-4.6,0.9c-1.1,0-2.2-0.2-3.2-0.5c-1-0.3-2-0.7-2.9-1.3c-0.9-0.6-1.7-1.3-2.4-2.1c-0.7-0.9-1.3-1.8-1.7-3h-0.1v6.2
		h-1.1V0h1.1v21H38.8z M59.5,26.3c0-1.5-0.2-2.9-0.7-4.3c-0.5-1.4-1.2-2.6-2.1-3.6c-0.9-1-2-1.9-3.3-2.5c-1.3-0.6-2.7-0.9-4.3-0.9
		c-1.5,0-2.9,0.3-4.2,0.9c-1.3,0.6-2.4,1.4-3.3,2.4s-1.7,2.2-2.2,3.6c-0.5,1.4-0.8,2.8-0.8,4.3s0.3,3,0.8,4.3
		c0.5,1.4,1.3,2.6,2.2,3.6c0.9,1,2,1.8,3.3,2.4c1.3,0.6,2.7,0.9,4.2,0.9c1.6,0,3-0.3,4.3-0.9c1.3-0.6,2.4-1.4,3.3-2.4
		c0.9-1,1.6-2.2,2.1-3.6C59.3,29.3,59.5,27.8,59.5,26.3z"/>
	<path class="st1" d="M90.8,26.2c0,1.8-0.3,3.5-0.9,5s-1.4,2.8-2.5,3.9c-1.1,1.1-2.3,1.9-3.8,2.5c-1.5,0.6-3.1,0.9-4.9,0.9
		s-3.4-0.3-4.8-0.9c-1.5-0.6-2.7-1.4-3.8-2.5c-1.1-1.1-1.9-2.4-2.5-3.9c-0.6-1.5-0.9-3.2-0.9-5s0.3-3.4,0.9-4.9
		c0.6-1.5,1.4-2.8,2.5-3.8c1.1-1.1,2.3-1.9,3.8-2.5c1.5-0.6,3.1-0.9,4.8-0.9s3.4,0.3,4.9,0.9c1.5,0.6,2.8,1.4,3.8,2.5
		c1.1,1.1,1.9,2.3,2.5,3.8S90.8,24.5,90.8,26.2z M89.7,26.2c0-1.5-0.2-3-0.8-4.4c-0.5-1.4-1.2-2.6-2.2-3.6s-2.1-1.8-3.5-2.4
		C82,15.3,80.5,15,78.8,15s-3.2,0.3-4.5,0.9c-1.3,0.6-2.5,1.4-3.4,2.4c-1,1-1.7,2.2-2.2,3.6c-0.5,1.4-0.8,2.8-0.8,4.4
		c0,1.6,0.2,3,0.8,4.4c0.5,1.4,1.2,2.6,2.2,3.6c1,1,2.1,1.8,3.4,2.4c1.3,0.6,2.8,0.9,4.5,0.9s3.2-0.3,4.6-0.9
		c1.3-0.6,2.5-1.4,3.5-2.4c1-1,1.7-2.2,2.2-3.6C89.5,29.3,89.7,27.8,89.7,26.2z"/>
	<path class="st1" d="M114.6,34.6c-0.6,0.8-1.3,1.6-2.1,2.1c-0.8,0.6-1.7,1-2.6,1.3s-1.9,0.5-2.9,0.5c-1.6,0-2.9-0.3-4-0.9
		c-1.1-0.6-1.9-1.3-2.5-2.2c-0.6-0.9-1.1-2-1.4-3.1s-0.4-2.4-0.4-3.5V14.8h1.1v13.8c0,1,0.1,2,0.3,3s0.6,2,1.1,2.9
		c0.5,0.9,1.3,1.6,2.2,2.2c0.9,0.6,2.1,0.9,3.6,0.9c1.3,0,2.5-0.3,3.6-0.8c1.1-0.5,2.1-1.3,2.9-2.2c0.8-1,1.5-2.1,2-3.5
		c0.5-1.4,0.7-3,0.7-4.7V14.8h1.1V32c0,0.4,0,0.8,0,1.3c0,0.5,0,1.1,0.1,1.6c0,0.5,0,1.1,0.1,1.6s0.1,0.9,0.1,1.2h-1.1
		c0-0.3-0.1-0.8-0.1-1.2c0-0.5,0-1-0.1-1.6c0-0.6,0-1.2,0-1.7s0-1,0-1.5H116C115.7,32.8,115.2,33.8,114.6,34.6z"/>
	<path class="st1" d="M135.1,38.2c-0.5,0.1-1,0.1-1.5,0.1c-1.8,0-3.1-0.5-3.9-1.5s-1.1-2.3-1.1-3.8V15.8h-5v-1h5V8h1.1v6.8h6.8v1
		h-6.8V33c0,1.6,0.4,2.7,1.2,3.4c0.8,0.7,1.8,1,3,1c0.9,0,1.8-0.2,2.5-0.5l0.2,0.8C136.1,38,135.6,38.1,135.1,38.2z"/>
</g>
</svg>
